<svg xmlns="http://www.w3.org/2000/svg" width="375" viewBox="0 0 375 375" height="375" version="1.0"><defs><clipPath id="a"><path d="M 231.542969 189.832031 L 370 189.832031 L 370 366 L 231.542969 366 Z M 231.542969 189.832031"/></clipPath><clipPath id="b"><path d="M 278.875 207 L 349.011719 207 L 349.011719 248 L 278.875 248 Z M 278.875 207"/></clipPath><clipPath id="c"><path d="M 315 240 L 347 240 L 347 266.179688 L 315 266.179688 Z M 315 240"/></clipPath><clipPath id="d"><path d="M 296 241 L 328 241 L 328 266.179688 L 296 266.179688 Z M 296 241"/></clipPath><clipPath id="e"><path d="M 278.875 207 L 349.011719 207 L 349.011719 248 L 278.875 248 Z M 278.875 207"/></clipPath><clipPath id="f"><path d="M 315 240 L 347 240 L 347 266.179688 L 315 266.179688 Z M 315 240"/></clipPath><clipPath id="g"><path d="M 296 241 L 328 241 L 328 266.179688 L 296 266.179688 Z M 296 241"/></clipPath></defs><path fill="#FFF" d="M-37.5 -37.5H412.5V412.5H-37.5z"/><path fill="#D9D9D9" d="M-37.5 -37.5H412.5V412.5H-37.5z"/><g clip-path="url(#a)"><path fill="#FFB619" d="M 243.886719 237.011719 C 243.011719 243.667969 247.128906 249.203125 246.320312 259.773438 C 245.507812 270.339844 231.683594 287.253906 231.726562 289.851562 C 231.789062 293.480469 244.875 291.902344 245.105469 295.542969 C 246.078125 311 244.933594 320.5 251.785156 328.75 C 256.847656 334.84375 281.441406 329.851562 285.554688 336.109375 C 293.480469 348.167969 279.238281 364.714844 291.109375 364.714844 C 298.402344 364.714844 331.976562 366.832031 338.535156 364.640625 C 348.933594 361.167969 334.972656 336.648438 341.574219 319.523438 C 351.613281 293.488281 365.894531 292.695312 368.933594 252.761719 C 371.707031 216.335938 345.628906 189.863281 308.335938 189.863281 C 271.902344 189.859375 248.75 200.023438 243.886719 237.011719 Z M 243.886719 237.011719"/></g><path fill="#FFF" d="M 253.46875 238.691406 C 258.003906 251.015625 271.972656 254.457031 292.542969 254.457031 C 307.59375 254.457031 309.644531 270.847656 323.671875 284.433594 C 336.710938 297.0625 359.351562 288.605469 362.664062 266.683594 C 369.320312 222.621094 344.386719 195.652344 305.503906 195.652344 C 283.96875 195.652344 241.738281 206.820312 253.46875 238.691406 Z M 253.46875 238.691406"/><path fill="#FFF" d="M 283.847656 226.125 C 283.847656 229.246094 294.203125 240.433594 306.984375 240.433594 C 319.761719 240.433594 330.121094 229.019531 330.121094 226.125 C 330.121094 223.234375 319.761719 211.820312 306.984375 211.820312 C 294.203125 211.820312 283.847656 223.007812 283.847656 226.125 Z M 283.847656 226.125"/><path fill="#FFB619" d="M 306.984375 241.394531 C 319.96875 241.394531 331.082031 229.757812 331.082031 226.125 C 331.082031 222.496094 319.96875 210.859375 306.984375 210.859375 C 293.730469 210.859375 282.886719 222.386719 282.886719 226.125 C 282.886719 229.867188 293.730469 241.394531 306.984375 241.394531 Z M 306.984375 212.78125 C 319.421875 212.78125 329.164062 224.054688 329.164062 226.125 C 329.164062 228.199219 319.421875 239.472656 306.984375 239.472656 C 294.769531 239.472656 284.804688 228.742188 284.804688 226.125 C 284.804688 223.511719 294.769531 212.78125 306.984375 212.78125 Z M 306.984375 212.78125"/><path fill="#FFB619" d="M 293.4375 226.125 C 293.4375 226.933594 293.515625 227.730469 293.671875 228.519531 C 293.828125 229.308594 294.058594 230.074219 294.367188 230.820312 C 294.675781 231.5625 295.050781 232.269531 295.496094 232.941406 C 295.945312 233.609375 296.449219 234.226562 297.019531 234.796875 C 297.585938 235.367188 298.203125 235.875 298.871094 236.324219 C 299.539062 236.769531 300.246094 237.148438 300.984375 237.457031 C 301.726562 237.765625 302.492188 237.996094 303.28125 238.152344 C 304.066406 238.3125 304.863281 238.390625 305.664062 238.390625 C 306.46875 238.390625 307.265625 238.3125 308.050781 238.152344 C 308.839844 237.996094 309.605469 237.765625 310.34375 237.457031 C 311.085938 237.148438 311.792969 236.769531 312.460938 236.324219 C 313.128906 235.875 313.746094 235.367188 314.3125 234.796875 C 314.878906 234.226562 315.386719 233.609375 315.832031 232.941406 C 316.28125 232.269531 316.65625 231.5625 316.964844 230.820312 C 317.269531 230.074219 317.503906 229.308594 317.660156 228.519531 C 317.816406 227.730469 317.894531 226.933594 317.894531 226.125 C 317.894531 225.320312 317.816406 224.523438 317.660156 223.734375 C 317.503906 222.945312 317.269531 222.179688 316.964844 221.433594 C 316.65625 220.691406 316.28125 219.984375 315.832031 219.3125 C 315.386719 218.644531 314.878906 218.023438 314.3125 217.457031 C 313.746094 216.886719 313.128906 216.378906 312.460938 215.929688 C 311.792969 215.484375 311.085938 215.105469 310.34375 214.796875 C 309.605469 214.488281 308.839844 214.257812 308.050781 214.101562 C 307.265625 213.941406 306.46875 213.863281 305.664062 213.863281 C 304.863281 213.863281 304.066406 213.941406 303.28125 214.101562 C 302.492188 214.257812 301.726562 214.488281 300.984375 214.796875 C 300.246094 215.105469 299.539062 215.484375 298.871094 215.929688 C 298.203125 216.378906 297.585938 216.886719 297.019531 217.457031 C 296.449219 218.023438 295.945312 218.644531 295.496094 219.3125 C 295.050781 219.984375 294.675781 220.691406 294.367188 221.433594 C 294.058594 222.179688 293.828125 222.945312 293.671875 223.734375 C 293.515625 224.523438 293.4375 225.320312 293.4375 226.125 Z M 293.4375 226.125"/><path fill="#FFB619" d="M 306.503906 207.253906 C 307.167969 207.253906 307.703125 206.714844 307.703125 206.050781 L 307.703125 199.316406 C 307.703125 198.652344 307.167969 198.117188 306.503906 198.117188 C 305.84375 198.117188 305.304688 198.652344 305.304688 199.316406 L 305.304688 206.050781 C 305.304688 206.714844 305.84375 207.253906 306.503906 207.253906 Z M 306.503906 207.253906"/><path fill="#FFB619" d="M 294.179688 210.019531 C 294.414062 210.019531 294.652344 209.949219 294.859375 209.804688 C 295.40625 209.429688 295.542969 208.679688 295.164062 208.132812 L 291.34375 202.597656 C 290.964844 202.050781 290.21875 201.914062 289.675781 202.292969 C 289.128906 202.671875 288.996094 203.421875 289.371094 203.96875 L 293.191406 209.503906 C 293.425781 209.839844 293.800781 210.019531 294.179688 210.019531 Z M 294.179688 210.019531"/><path fill="#FFB619" d="M 285.464844 217.910156 C 285.847656 217.910156 286.226562 217.722656 286.457031 217.382812 C 286.828125 216.832031 286.6875 216.085938 286.140625 215.710938 L 280.585938 211.929688 C 280.035156 211.558594 279.289062 211.699219 278.917969 212.25 C 278.546875 212.800781 278.691406 213.546875 279.238281 213.921875 L 284.792969 217.699219 C 285 217.839844 285.234375 217.910156 285.464844 217.910156 Z M 285.464844 217.910156"/><path fill="#FFB619" d="M 320.234375 209.375 C 320.652344 209.375 321.054688 209.15625 321.277344 208.769531 L 324.613281 202.925781 C 324.941406 202.351562 324.742188 201.617188 324.167969 201.285156 C 323.59375 200.957031 322.863281 201.15625 322.535156 201.730469 L 319.199219 207.574219 C 318.867188 208.148438 319.066406 208.882812 319.640625 209.214844 C 319.828125 209.324219 320.035156 209.375 320.234375 209.375 Z M 320.234375 209.375"/><path fill="#FFB619" d="M 329.078125 217.910156 C 329.3125 217.910156 329.546875 217.839844 329.75 217.699219 L 335.308594 213.921875 C 335.855469 213.546875 336 212.800781 335.625 212.25 C 335.253906 211.699219 334.507812 211.558594 333.960938 211.929688 L 328.40625 215.710938 C 327.859375 216.085938 327.714844 216.832031 328.085938 217.382812 C 328.316406 217.722656 328.695312 217.910156 329.078125 217.910156 Z M 329.078125 217.910156"/><path fill="#FFB619" d="M 308.039062 254.777344 C 308.703125 254.777344 309.238281 254.238281 309.238281 253.574219 L 309.238281 246.839844 C 309.238281 246.175781 308.703125 245.640625 308.039062 245.640625 C 307.378906 245.640625 306.839844 246.175781 306.839844 246.839844 L 306.839844 253.574219 C 306.839844 254.238281 307.378906 254.777344 308.039062 254.777344 Z M 308.039062 254.777344"/><path fill="#FFB619" d="M 324.1875 250.808594 C 324.421875 250.808594 324.660156 250.742188 324.867188 250.597656 C 325.414062 250.21875 325.550781 249.46875 325.171875 248.921875 L 321.351562 243.386719 C 320.976562 242.84375 320.226562 242.707031 319.683594 243.085938 C 319.140625 243.460938 319.003906 244.210938 319.378906 244.757812 L 323.199219 250.292969 C 323.433594 250.628906 323.808594 250.808594 324.1875 250.808594 Z M 324.1875 250.808594"/><path fill="#FFB619" d="M 334.632812 241.167969 C 335.015625 241.167969 335.394531 240.984375 335.625 240.640625 C 335.996094 240.089844 335.855469 239.34375 335.308594 238.96875 L 329.75 235.191406 C 329.203125 234.820312 328.457031 234.960938 328.085938 235.511719 C 327.714844 236.058594 327.859375 236.808594 328.40625 237.179688 L 333.960938 240.960938 C 334.167969 241.101562 334.402344 241.167969 334.632812 241.167969 Z M 334.632812 241.167969"/><path fill="#FFB619" d="M 290.96875 251.765625 C 291.386719 251.765625 291.789062 251.546875 292.011719 251.160156 L 295.347656 245.316406 C 295.675781 244.742188 295.476562 244.007812 294.902344 243.675781 C 294.328125 243.347656 293.597656 243.546875 293.265625 244.121094 L 289.929688 249.964844 C 289.601562 250.539062 289.800781 251.273438 290.375 251.605469 C 290.5625 251.710938 290.769531 251.765625 290.96875 251.765625 Z M 290.96875 251.765625"/><path fill="#FFB619" d="M 279.910156 241.167969 C 280.144531 241.167969 280.378906 241.101562 280.582031 240.960938 L 286.136719 237.179688 C 286.6875 236.808594 286.828125 236.058594 286.457031 235.511719 C 286.085938 234.960938 285.339844 234.820312 284.792969 235.191406 L 279.238281 238.96875 C 278.6875 239.34375 278.546875 240.089844 278.917969 240.640625 C 279.148438 240.980469 279.527344 241.167969 279.910156 241.167969 Z M 279.910156 241.167969"/><path fill="#FFF" d="M 298.332031 226.125 C 298.332031 226.609375 298.378906 227.085938 298.472656 227.5625 C 298.566406 228.035156 298.707031 228.496094 298.890625 228.941406 C 299.074219 229.386719 299.300781 229.8125 299.566406 230.210938 C 299.835938 230.613281 300.140625 230.984375 300.480469 231.328125 C 300.820312 231.667969 301.191406 231.972656 301.589844 232.242188 C 301.992188 232.507812 302.414062 232.734375 302.859375 232.921875 C 303.304688 233.105469 303.761719 233.246094 304.234375 233.339844 C 304.707031 233.433594 305.183594 233.480469 305.664062 233.480469 C 306.148438 233.480469 306.625 233.433594 307.097656 233.339844 C 307.570312 233.246094 308.027344 233.105469 308.472656 232.921875 C 308.917969 232.734375 309.339844 232.507812 309.738281 232.242188 C 310.140625 231.972656 310.511719 231.667969 310.851562 231.328125 C 311.191406 230.984375 311.496094 230.613281 311.761719 230.210938 C 312.03125 229.8125 312.257812 229.386719 312.441406 228.941406 C 312.625 228.496094 312.765625 228.035156 312.859375 227.5625 C 312.953125 227.085938 313 226.609375 313 226.125 C 313 225.644531 312.953125 225.164062 312.859375 224.691406 C 312.765625 224.21875 312.625 223.757812 312.441406 223.3125 C 312.257812 222.867188 312.03125 222.441406 311.761719 222.042969 C 311.496094 221.640625 311.191406 221.269531 310.851562 220.925781 C 310.511719 220.585938 310.140625 220.28125 309.738281 220.011719 C 309.339844 219.746094 308.917969 219.519531 308.472656 219.332031 C 308.027344 219.148438 307.570312 219.007812 307.097656 218.914062 C 306.625 218.820312 306.148438 218.773438 305.664062 218.773438 C 305.183594 218.773438 304.707031 218.820312 304.234375 218.914062 C 303.761719 219.007812 303.304688 219.148438 302.859375 219.332031 C 302.414062 219.519531 301.992188 219.746094 301.589844 220.011719 C 301.191406 220.28125 300.820312 220.585938 300.480469 220.925781 C 300.140625 221.269531 299.835938 221.640625 299.566406 222.042969 C 299.300781 222.441406 299.074219 222.867188 298.890625 223.3125 C 298.707031 223.757812 298.566406 224.21875 298.472656 224.691406 C 298.378906 225.164062 298.332031 225.644531 298.332031 226.125 Z M 298.332031 226.125"/><path fill="#FFF" d="M 306.21875 199.589844 C 280.535156 199.589844 259.71875 213.355469 259.71875 230.339844 C 259.71875 247.320312 280.535156 261.089844 306.21875 261.089844 C 331.898438 261.089844 352.71875 247.320312 352.71875 230.339844 C 352.71875 213.355469 331.898438 199.589844 306.21875 199.589844"/><g clip-path="url(#b)"><path stroke-linecap="round" transform="matrix(-.65278 0 0 .65173 553.056 110.553)" fill="none" stroke-linejoin="round" d="M 378.307675 207.238149 C 393.740521 205.841634 404.972569 201.580168 404.972569 196.557512 C 404.972569 196.143951 404.703287 195.754366 404.553686 195.352793 C 405.463261 195.580551 406.378819 195.820296 407.378154 195.820296 C 412.943314 195.820296 417.449298 192.032326 417.449298 187.381274 C 417.449298 182.724228 412.943314 178.966226 407.378154 178.966226 C 406.695974 178.966226 406.097569 179.18799 405.451293 179.295876 C 406.013793 177.431859 406.402755 175.525886 406.402755 173.506035 C 406.402755 161.177151 395.230548 151.161806 381.449297 151.161806 C 371.683339 151.161806 363.317648 156.250393 359.218578 163.562614 C 357.578951 162.645589 355.753818 162.088182 353.826956 162.088182 C 347.992514 162.082188 343.139456 166.775196 341.637461 173.146418 C 339.076291 172.133495 336.120173 171.510158 332.942647 171.510158 C 323.398099 171.510158 315.654747 176.736598 315.654747 183.17375 C 315.654747 188.981571 321.997833 193.758489 330.243843 194.645546 C 329.872833 195.268882 329.585599 195.898213 329.585599 196.557512 C 329.585599 200.800997 337.598232 204.499063 349.380812 206.387054" stroke="#6798E9" stroke-width="6.154" stroke-miterlimit=".5"/></g><path fill="#6798E9" d="M 332.324219 256.484375 C 337.710938 261.222656 331.386719 265.261719 328.984375 258.753906 L 327.132812 252.71875 Z M 332.324219 256.484375"/><g clip-path="url(#c)"><path transform="matrix(-.65278 0 0 .65173 553.056 110.553)" fill="none" d="M 338.14278 223.91241 C 329.890785 231.182675 339.57895 237.380082 343.259136 227.394705 L 346.095573 218.134557 Z M 338.14278 223.91241" stroke="#6798E9" stroke-width="4" stroke-miterlimit="3.2"/></g><path fill="#6798E9" d="M 313.371094 257.265625 C 318.753906 262.003906 312.429688 266.042969 310.027344 259.535156 L 308.179688 253.5 Z M 313.371094 257.265625"/><g clip-path="url(#d)"><path transform="matrix(-.65278 0 0 .65173 553.056 110.553)" fill="none" d="M 367.177355 225.111134 C 358.931344 232.3814 368.61951 238.578807 372.299696 228.59343 L 375.130148 219.333281 Z M 367.177355 225.111134" stroke="#6798E9" stroke-width="4" stroke-miterlimit="3.2"/></g><path transform="matrix(-.65278 0 0 .65173 553.056 110.553)" fill="#6798E9" d="M 360.421371 209.767458 C 352.169376 217.037723 361.857541 223.241124 365.537728 213.255747 L 368.374164 203.995598 Z M 360.421371 209.767458" stroke="#6798E9" stroke-width="4" stroke-miterlimit="3.2"/><g clip-path="url(#e)"><path stroke-linecap="round" transform="matrix(-.65278 0 0 .65173 553.056 110.553)" fill="none" stroke-linejoin="round" d="M 378.307675 207.238149 C 393.740521 205.841634 404.972569 201.580168 404.972569 196.557512 C 404.972569 196.143951 404.703287 195.754366 404.553686 195.352793 C 405.463261 195.580551 406.378819 195.820296 407.378154 195.820296 C 412.943314 195.820296 417.449298 192.032326 417.449298 187.381274 C 417.449298 182.724228 412.943314 178.966226 407.378154 178.966226 C 406.695974 178.966226 406.097569 179.18799 405.451293 179.295876 C 406.013793 177.431859 406.402755 175.525886 406.402755 173.506035 C 406.402755 161.177151 395.230548 151.161806 381.449297 151.161806 C 371.683339 151.161806 363.317648 156.250393 359.218578 163.562614 C 357.578951 162.645589 355.753818 162.088182 353.826956 162.088182 C 347.992514 162.082188 343.139456 166.775196 341.637461 173.146418 C 339.076291 172.133495 336.120173 171.510158 332.942647 171.510158 C 323.398099 171.510158 315.654747 176.736598 315.654747 183.17375 C 315.654747 188.981571 321.997833 193.758489 330.243843 194.645546 C 329.872833 195.268882 329.585599 195.898213 329.585599 196.557512 C 329.585599 200.800997 337.598232 204.499063 349.380812 206.387054" stroke="#6798E9" stroke-width="6.154" stroke-miterlimit=".5"/></g><path fill="#6798E9" d="M 332.324219 256.484375 C 337.710938 261.222656 331.386719 265.261719 328.984375 258.753906 L 327.132812 252.71875 Z M 332.324219 256.484375"/><g clip-path="url(#f)"><path transform="matrix(-.65278 0 0 .65173 553.056 110.553)" fill="none" d="M 338.14278 223.91241 C 329.890785 231.182675 339.57895 237.380082 343.259136 227.394705 L 346.095573 218.134557 Z M 338.14278 223.91241" stroke="#6798E9" stroke-width="4" stroke-miterlimit="3.2"/></g><path fill="#6798E9" d="M 313.371094 257.265625 C 318.753906 262.003906 312.429688 266.042969 310.027344 259.535156 L 308.179688 253.5 Z M 313.371094 257.265625"/><g clip-path="url(#g)"><path transform="matrix(-.65278 0 0 .65173 553.056 110.553)" fill="none" d="M 367.177355 225.111134 C 358.931344 232.3814 368.61951 238.578807 372.299696 228.59343 L 375.130148 219.333281 Z M 367.177355 225.111134" stroke="#6798E9" stroke-width="4" stroke-miterlimit="3.2"/></g><path transform="matrix(-.65278 0 0 .65173 553.056 110.553)" fill="#6798E9" d="M 360.421371 209.767458 C 352.169376 217.037723 361.857541 223.241124 365.537728 213.255747 L 368.374164 203.995598 Z M 360.421371 209.767458" stroke="#6798E9" stroke-width="4" stroke-miterlimit="3.2"/></svg>